<svg xmlns="http://www.w3.org/2000/svg" width="59" height="41" viewBox="0 0 59 41">
  <g id="calendar_icon" transform="translate(-148 -764)">
    <g id="Rectangle_34" data-name="Rectangle 34" transform="translate(148 764)" fill="#f4f5fb" stroke="#cfcfcf" stroke-width="1">
      <rect width="59" height="41" rx="3" stroke="none"/>
      <rect x="0.5" y="0.5" width="58" height="40" rx="2.5" fill="none"/>
    </g>
    <path id="Icon_awesome-calendar-alt" data-name="Icon awesome-calendar-alt" d="M0,21.65a2.24,2.24,0,0,0,2.24,2.24H18.663a2.24,2.24,0,0,0,2.24-2.24V8.958H0ZM14.931,12.5a.562.562,0,0,1,.56-.56h1.866a.562.562,0,0,1,.56.56v1.866a.562.562,0,0,1-.56.56H15.491a.562.562,0,0,1-.56-.56Zm0,5.972a.562.562,0,0,1,.56-.56h1.866a.562.562,0,0,1,.56.56v1.866a.562.562,0,0,1-.56.56H15.491a.562.562,0,0,1-.56-.56ZM8.958,12.5a.562.562,0,0,1,.56-.56h1.866a.562.562,0,0,1,.56.56v1.866a.562.562,0,0,1-.56.56H9.518a.562.562,0,0,1-.56-.56Zm0,5.972a.562.562,0,0,1,.56-.56h1.866a.562.562,0,0,1,.56.56v1.866a.562.562,0,0,1-.56.56H9.518a.562.562,0,0,1-.56-.56ZM2.986,12.5a.562.562,0,0,1,.56-.56H5.412a.562.562,0,0,1,.56.56v1.866a.562.562,0,0,1-.56.56H3.546a.562.562,0,0,1-.56-.56Zm0,5.972a.562.562,0,0,1,.56-.56H5.412a.562.562,0,0,1,.56.56v1.866a.562.562,0,0,1-.56.56H3.546a.562.562,0,0,1-.56-.56ZM18.663,2.986h-2.24V.747A.749.749,0,0,0,15.677,0H14.184a.749.749,0,0,0-.747.747v2.24H7.465V.747A.749.749,0,0,0,6.719,0H5.226a.749.749,0,0,0-.747.747v2.24H2.24A2.24,2.24,0,0,0,0,5.226v2.24H20.9V5.226A2.24,2.24,0,0,0,18.663,2.986Z" transform="translate(167.048 773)" fill="#cf7ac2"/>
  </g>
</svg>
