<svg xmlns="http://www.w3.org/2000/svg" width="61" height="45" viewBox="0 0 61 45">
  <g id="column_icon" transform="translate(-1079 -504)">
    <g id="Rectangle_410" data-name="Rectangle 410" transform="translate(1079 504)" fill="#fff" stroke="#cfcfcf" stroke-width="1">
      <rect width="61" height="45" rx="3" stroke="none"/>
      <rect x="0.5" y="0.5" width="60" height="44" rx="2.5" fill="none"/>
    </g>
    <g id="column_icon-2" data-name="column_icon" transform="translate(897.815 367.132)">
      <path id="Path_84" data-name="Path 84" d="M275.783,149.239h8.3v20.22h-8.3v-20.22Zm-1.8,21.789h11.824V147.708H273.983Z" transform="translate(-68.734 0)" fill="#cf7ac2" fill-rule="evenodd"/>
      <path id="Path_85" data-name="Path 85" d="M424.323,156.256h4.64v2.332h-4.64v1.684h4.64V175.43h-4.64v1.555h6.436V154.7h-6.436Z" transform="translate(-206.202 -6.475)" fill="#cf7ac2" fill-rule="evenodd"/>
      <path id="Path_86" data-name="Path 86" d="M198.813,176.985h5.239V175.43h-3.442V160.272h3.442v-1.684h-3.442v-2.332h3.442V154.7h-5.239Z" transform="translate(0 -6.475)" fill="#cf7ac2" fill-rule="evenodd"/>
      <rect id="Rectangle_379" data-name="Rectangle 379" width="5.092" height="1.555" transform="translate(208.54 152.243)" fill="#cf7ac2"/>
      <rect id="Rectangle_380" data-name="Rectangle 380" width="5.092" height="1.166" transform="translate(208.54 155.741)" fill="#cf7ac2"/>
      <rect id="Rectangle_381" data-name="Rectangle 381" width="5.092" height="1.166" transform="translate(208.54 161.83)" fill="#cf7ac2"/>
      <rect id="Rectangle_382" data-name="Rectangle 382" width="5.092" height="1.036" transform="translate(208.54 158.85)" fill="#cf7ac2"/>
      <rect id="Rectangle_383" data-name="Rectangle 383" width="5.092" height="1.036" transform="translate(208.54 164.939)" fill="#cf7ac2"/>
      <rect id="Rectangle_384" data-name="Rectangle 384" width="3.592" height="1.166" transform="translate(218.121 155.741)" fill="#cf7ac2"/>
      <rect id="Rectangle_385" data-name="Rectangle 385" width="3.592" height="1.166" transform="translate(218.121 161.83)" fill="#cf7ac2"/>
      <rect id="Rectangle_386" data-name="Rectangle 386" width="3.592" height="1.036" transform="translate(218.121 164.939)" fill="#cf7ac2"/>
      <rect id="Rectangle_387" data-name="Rectangle 387" width="3.592" height="1.036" transform="translate(218.121 158.85)" fill="#cf7ac2"/>
      <rect id="Rectangle_388" data-name="Rectangle 388" width="2.395" height="1.166" transform="translate(201.657 155.741)" fill="#cf7ac2"/>
      <rect id="Rectangle_389" data-name="Rectangle 389" width="2.395" height="1.166" transform="translate(201.657 161.83)" fill="#cf7ac2"/>
      <rect id="Rectangle_390" data-name="Rectangle 390" width="2.395" height="1.036" transform="translate(201.657 164.939)" fill="#cf7ac2"/>
      <rect id="Rectangle_391" data-name="Rectangle 391" width="2.395" height="1.036" transform="translate(201.657 158.85)" fill="#cf7ac2"/>
    </g>
  </g>
</svg>
