<svg xmlns="http://www.w3.org/2000/svg" width="120.556" height="138.604" viewBox="0 0 120.556 138.604">
  <g id="data_not_present_icon" opacity="0.48">
    <path id="Path_11" data-name="Path 11" d="M215.455,669.64,200.891,607.8c-.462-2.2-.163-4.389,4.389-4.389h42.214c5.6,0,6.464,1.342,7.59,4.092l1.084,2.375c1.089,2.559,3.029,2.42,4.2,2.465h57.229c5.082.076,3.554,4.112,3.225,5.645l-12.158,51.64c-.72,2.335-1.041,3.671-6.208,3.622H221.512C218.546,673.247,216.23,672.568,215.455,669.64Z" transform="translate(-200.733 -534.644)" fill="#4d4d4d" fill-rule="evenodd"/>
    <path id="Path_12" data-name="Path 12" d="M210.509,584.659H314.882c2.867,0,5.759,2.4,5.213,5.213l-3.819,19.654H261.038c-1.166-.045-3.107.094-4.2-2.465l-1.084-2.375c-1.125-2.75-1.987-4.092-7.59-4.091H207.5L205.3,589.872C204.719,587.063,207.642,584.659,210.509,584.659Z" transform="translate(-201.407 -531.83)" fill="#333" fill-rule="evenodd"/>
    <path id="Path_13" data-name="Path 13" d="M237.88,548.2h49.17l10.257,9.377v46.477H265.939c-1.166-.045-3.107.094-4.2-2.465l-1.084-2.375c-1.125-2.75-1.987-4.092-7.59-4.092H237.88Z" transform="translate(-206.308 -526.359)" fill="gray" fill-rule="evenodd"/>
    <path id="Path_14" data-name="Path 14" d="M295.711,557.577h10.275L295.729,548.2Z" transform="translate(-214.986 -526.359)" fill="#b3b3b3" fill-rule="evenodd"/>
    <circle id="Ellipse_5" data-name="Ellipse 5" cx="17.573" cy="17.573" r="17.573" transform="translate(42.706 91.682)" fill="gray" opacity="0.4"/>
    <path id="Path_15" data-name="Path 15" d="M277.887,644.592l-2.45-2.45-5.119,5.119-5.119-5.119-2.45,2.45,5.119,5.119-5.119,5.119,2.45,2.45,5.119-5.119,5.119,5.119,2.45-2.45-5.119-5.119Z" transform="translate(-210.04 -540.456)" fill="#b3b3b3" fill-rule="evenodd" opacity="0.62"/>
    <g id="Group_148" data-name="Group 148" transform="translate(46.214 42.542)">
      <rect id="Rectangle_129" data-name="Rectangle 129" width="8.222" height="16.951" rx="2.107" transform="translate(0 3.895)" fill="#999"/>
      <path id="Rectangle_130" data-name="Rectangle 130" d="M2.106,0H6.115A2.107,2.107,0,0,1,8.221,2.107V12.158a2.107,2.107,0,0,1-2.107,2.107H2.107A2.107,2.107,0,0,1,0,12.158V2.106A2.106,2.106,0,0,1,2.106,0Z" transform="translate(10.961 6.581)" fill="#999"/>
      <rect id="Rectangle_131" data-name="Rectangle 131" width="8.221" height="20.846" rx="2.107" transform="translate(21.921)" fill="#999"/>
    </g>
    <path id="Path_16" data-name="Path 16" d="M321.884,531.257h0a1.6,1.6,0,0,1,1.6,1.6v2.359h2.359a1.6,1.6,0,0,1,1.6,1.6h0a1.6,1.6,0,0,1-1.6,1.6h-2.359v2.359a1.6,1.6,0,0,1-1.6,1.6h0a1.6,1.6,0,0,1-1.6-1.6v-2.359h-2.359a1.6,1.6,0,0,1-1.6-1.6h0a1.6,1.6,0,0,1,1.6-1.6h2.359v-2.359A1.6,1.6,0,0,1,321.884,531.257Z" transform="translate(-218.08 -523.816)" fill="#e6e6e6" fill-rule="evenodd" opacity="0.21"/>
    <path id="Path_17" data-name="Path 17" d="M226.928,569.758h0a.991.991,0,0,1,.988.988V572.2h1.458a.991.991,0,0,1,.988.988h0a.99.99,0,0,1-.988.988h-1.458v1.458a.991.991,0,0,1-.988.988h0a.991.991,0,0,1-.988-.988v-1.458h-1.458a.99.99,0,0,1-.988-.988h0a.991.991,0,0,1,.988-.988h1.458v-1.458A.991.991,0,0,1,226.928,569.758Z" transform="translate(-204.149 -529.594)" fill="#4d4d4d" fill-rule="evenodd" opacity="0.6"/>
    <path id="Path_18" data-name="Path 18" d="M245.17,522.5h0a.99.99,0,0,1,.988.988v1.458h1.458a.99.99,0,0,1,.987.988h0a.99.99,0,0,1-.987.988h-1.458v1.458a.991.991,0,0,1-.988.988h0a.991.991,0,0,1-.988-.988v-1.458h-1.458a.99.99,0,0,1-.987-.988h0a.99.99,0,0,1,.987-.988h1.458V523.49A.99.99,0,0,1,245.17,522.5Z" transform="translate(-206.886 -522.502)" fill="#e6e6e6" fill-rule="evenodd" opacity="0.43"/>
    <path id="Path_19" data-name="Path 19" d="M318.221,571.341h0a.8.8,0,0,1,.8.8v1.18H320.2a.8.8,0,0,1,.8.8h0a.8.8,0,0,1-.8.8H319.02v1.18a.8.8,0,0,1-.8.8h0a.8.8,0,0,1-.8-.8v-1.18h-1.18a.8.8,0,0,1-.8-.8h0a.8.8,0,0,1,.8-.8h1.18v-1.18A.8.8,0,0,1,318.221,571.341Z" transform="translate(-217.948 -529.831)" fill="#e6e6e6" fill-rule="evenodd" opacity="0.47"/>
  </g>
</svg>
