<svg xmlns="http://www.w3.org/2000/svg" width="24.265" height="21.231" viewBox="0 0 24.265 21.231">
  <path id="Masters_icon" d="M7.077,10.97v3.791A1.137,1.137,0,0,1,5.94,15.9h-4.8A1.137,1.137,0,0,1,0,14.761V10.97A1.137,1.137,0,0,1,1.137,9.833h4.8A1.137,1.137,0,0,1,7.077,10.97ZM0,18.553v3.791a1.137,1.137,0,0,0,1.137,1.137h4.8a1.137,1.137,0,0,0,1.137-1.137V18.553A1.137,1.137,0,0,0,5.94,17.415h-4.8A1.137,1.137,0,0,0,0,18.553ZM5.94,2.25h-4.8A1.137,1.137,0,0,0,0,3.387V7.179A1.137,1.137,0,0,0,1.137,8.316h4.8A1.137,1.137,0,0,0,7.077,7.179V3.387A1.137,1.137,0,0,0,5.94,2.25ZM9.731,23.481h13.4a1.137,1.137,0,0,0,1.137-1.137V18.553a1.137,1.137,0,0,0-1.137-1.137H9.731a1.137,1.137,0,0,0-1.137,1.137v3.791A1.137,1.137,0,0,0,9.731,23.481ZM8.594,3.387V7.179A1.137,1.137,0,0,0,9.731,8.316h13.4a1.137,1.137,0,0,0,1.137-1.137V3.387A1.137,1.137,0,0,0,23.127,2.25H9.731A1.137,1.137,0,0,0,8.594,3.387ZM9.731,15.9h13.4a1.137,1.137,0,0,0,1.137-1.137V10.97a1.137,1.137,0,0,0-1.137-1.137H9.731A1.137,1.137,0,0,0,8.594,10.97v3.791A1.137,1.137,0,0,0,9.731,15.9Z" transform="translate(0 -2.25)" fill="#fff"/>
</svg>
